<svg width="100" height="94" viewBox="0 0 100 94" fill="none" xmlns="http://www.w3.org/2000/svg">
<path d="M91.6667 0H8.33333C3.73264 0 0 3.94139 0 8.79937V61.5956C0 66.4536 3.73264 70.395 8.33333 70.395H41.6667L37.5 87.9937H25C23.4722 87.9937 22.2222 89.3137 22.2222 90.9269C22.2222 92.5401 23.4722 93.86 25 93.86H75C76.5278 93.86 77.7778 92.5401 77.7778 90.9269C77.7778 89.3137 76.5278 87.9937 75 87.9937H62.5L58.3333 70.395H91.6667C96.2674 70.395 100 66.4536 100 61.5956V8.79937C100 3.94139 96.2674 0 91.6667 0ZM43.2292 87.9937L46.0069 76.2613H53.9931L56.7708 87.9937H43.2292ZM94.4444 61.5956C94.4444 63.2088 93.1944 64.5287 91.6667 64.5287H8.33333C6.80556 64.5287 5.55556 63.2088 5.55556 61.5956V52.7962H94.4444V61.5956ZM94.4444 46.93H5.55556V8.79937C5.55556 7.18616 6.80556 5.86625 8.33333 5.86625H91.6667C93.1944 5.86625 94.4444 7.18616 94.4444 8.79937V46.93Z" fill="#3FA5D5"/>
</svg>
