<svg width="100" height="111" viewBox="0 0 100 111" fill="none" xmlns="http://www.w3.org/2000/svg">
<path d="M80.4037 103.5H53.6023V92.6303C64.8456 91.2051 75.7095 86.3449 84.3591 77.9916C103.826 59.1977 105.085 29.6032 88.3412 9.2913L92.3903 5.38417C92.5564 5.22422 92.6882 5.03418 92.7781 4.82494C92.8681 4.6157 92.9143 4.39137 92.9143 4.16482C92.9143 3.93826 92.8681 3.71393 92.7781 3.50469C92.6882 3.29545 92.5564 3.10541 92.3903 2.94546L89.8613 0.504581C89.5259 0.181458 89.0716 0 88.5979 0C88.1243 0 87.6699 0.181458 87.3345 0.504581L78.5287 9.00667C78.7832 9.24171 79.0555 9.44655 79.3055 9.68589C88.0801 18.1578 92.9127 29.4199 92.9127 41.4C92.9127 53.3801 88.0801 64.6422 79.3055 73.1141C70.5309 81.5839 58.8635 86.25 46.4549 86.25C34.0464 86.25 22.379 81.5839 13.6044 73.1141C13.3566 72.8748 13.1423 72.6096 12.9013 72.3659L0.524001 84.3158C0.357907 84.4758 0.226123 84.6658 0.136204 84.8751C0.0462858 85.0843 0 85.3087 0 85.5352C0 85.7618 0.0462858 85.9861 0.136204 86.1953C0.226123 86.4046 0.357907 86.5946 0.524001 86.7546L3.05079 89.1933C3.38617 89.5164 3.84052 89.6979 4.31419 89.6979C4.78787 89.6979 5.24221 89.5164 5.57759 89.1933L13.1981 81.8362C22.9169 89.3011 34.6848 93.012 46.4572 93.0422V103.5H19.6513C16.6915 103.5 14.2919 105.816 14.2919 108.675C14.2919 109.628 15.091 110.4 16.0776 110.4H83.9774C84.964 110.4 85.7631 109.628 85.7631 108.675C85.7653 105.816 83.3658 103.5 80.4037 103.5ZM46.4549 79.35C56.5152 79.35 66.5755 75.6456 74.2519 68.2346C89.6024 53.4146 89.6024 29.3854 74.2519 14.5655C66.5755 7.15446 56.5152 3.45002 46.4549 3.45002C36.3946 3.45002 26.3343 7.15446 18.658 14.5655C3.30749 29.3854 3.30749 53.4146 18.658 68.2346C26.3343 75.6456 36.3946 79.35 46.4549 79.35ZM23.7116 19.4451C29.7875 13.5801 37.8634 10.35 46.4549 10.35C55.0465 10.35 63.1224 13.5801 69.1983 19.4451C75.272 25.3101 78.618 33.1071 78.618 41.4C78.618 49.693 75.272 57.4899 69.1983 63.3549C63.1224 69.2199 55.0465 72.45 46.4549 72.45C37.8634 72.45 29.7875 69.2199 23.7116 63.3549C17.6379 57.4899 14.2919 49.693 14.2919 41.4C14.2919 33.1071 17.6379 25.3101 23.7116 19.4451Z" fill="#3FA5D5"/>
</svg>
