<svg width="100" height="94" viewBox="0 0 100 94" fill="none" xmlns="http://www.w3.org/2000/svg">
<path d="M97.368 24.9269L93.0641 20.3819C89.5519 16.6711 83.8626 16.6674 80.3451 20.3819L66.6678 34.7832V24.1954C66.6678 21.8669 65.7824 19.6119 64.2199 17.9636L49.6571 2.58509C48.0946 0.935033 45.9765 0 43.7733 0H8.33174C3.7327 0.018334 0 3.96014 0 8.81681V85.0715C0 89.9282 3.7327 93.87 8.33174 93.87H58.3361C62.9351 93.87 66.6678 89.9282 66.6678 85.0715V70.3053C67.7599 69.4473 68.8588 68.5911 69.8241 67.5644L97.3663 38.3584C99.066 36.5653 100 34.18 100 31.6426C100 29.1052 99.066 26.7218 97.368 24.9269ZM44.4504 5.97505C44.9365 6.10338 45.3706 6.36006 45.7352 6.74507L60.2979 22.1236C60.6625 22.5086 60.9056 22.967 61.0271 23.4803H44.4504V5.97505ZM61.1139 85.0715C61.1139 86.6849 59.8639 88.005 58.3361 88.005H8.33174C6.80394 88.005 5.55392 86.6849 5.55392 85.0715V8.81681C5.55392 7.20342 6.80394 5.86688 8.33174 5.86688H38.8948V24.9471C38.8948 27.3855 40.7524 29.3344 43.0615 29.3344H61.1139V40.6153L52.6919 49.4596C47.4592 54.9524 44.4591 62.5702 44.4504 70.3603C43.7681 70.3072 43.1535 69.9166 42.8254 69.2108C40.7472 64.8363 34.7957 63.6483 31.3669 66.6129L28.9571 58.9823C28.3876 57.1837 26.7973 55.9737 25.0022 55.9737C23.207 55.9737 21.6167 57.1819 21.0472 58.9823L17.8823 69.0018C17.6218 69.8415 16.8788 70.4025 16.0437 70.4025H13.8891C12.3544 70.4025 11.1113 71.7152 11.1113 73.3359C11.1113 74.9567 12.3544 76.2694 13.8891 76.2694H16.0437C19.2764 76.2694 22.1358 74.0913 23.1567 70.8554L25.0004 65.0086L27.9189 74.2636C28.7071 76.7406 31.9363 76.9826 33.0405 74.645L34.3704 71.8344C35.0666 70.3548 37.1135 70.2595 37.8809 71.8967C39.1396 74.5478 41.65 76.2144 44.4452 76.2694H50.0009C53.8291 76.2675 57.6312 75.371 61.1139 73.776V85.0715ZM65.8848 63.4283C63.8031 65.6388 61.3281 67.393 58.6021 68.5899C55.8762 69.7868 52.9531 70.4028 50.0009 70.4025V70.397C50.0009 64.0993 52.3794 58.0601 56.6086 53.6196L77.5378 31.6426L86.7046 41.323L65.8848 63.4283ZM93.4391 34.2112L89.7602 38.0962L80.5934 28.4158L84.274 24.5309C85.6161 23.1137 87.7932 23.1118 89.137 24.5309L93.4409 29.0759C94.7812 30.4931 94.7812 32.7922 93.4391 34.2112Z" fill="#3FA5D5"/>
</svg>
