<svg width="100" height="81" viewBox="0 0 100 81" fill="none" xmlns="http://www.w3.org/2000/svg">
<path d="M80.25 32.0757L77.25 28.0267L69.75 33.7206L72.75 37.7696L80.25 32.0757ZM90 30.3675C92.0781 30.3675 94 29.7348 95.5938 28.6435C96.6562 27.916 97.5781 26.9828 98.2969 25.9073C99.375 24.294 100 22.3486 100 20.245C100 18.1414 99.375 16.196 98.2969 14.5827C97.9375 14.045 97.5312 13.5388 97.0781 13.0802C96.625 12.6215 96.125 12.2103 95.5938 11.8465C94 10.7552 92.0781 10.1225 90 10.1225C87.9219 10.1225 86 10.7552 84.4062 11.8465C83.3438 12.574 82.4219 13.5072 81.7031 14.5827C80.625 16.196 80 18.1414 80 20.245C80 25.8282 84.4844 30.3675 90 30.3675ZM90 15.1838C92.75 15.1838 95 17.4613 95 20.245C95 23.0287 92.75 25.3063 90 25.3063C87.25 25.3063 85 23.0287 85 20.245C85 17.4613 87.25 15.1838 90 15.1838ZM15.5938 39.6834C14 38.592 12.0781 37.9594 10 37.9594C7.92188 37.9594 6 38.592 4.40625 39.6834C3.34375 40.4109 2.42188 41.3441 1.70312 42.4196C0.625 44.0329 0 45.9783 0 48.0819C0 53.6651 4.48438 58.2044 10 58.2044C15.5156 58.2044 20 53.6651 20 48.0819C20 45.9783 19.375 44.0329 18.2969 42.4196C17.5781 41.3441 16.6562 40.4109 15.5938 39.6834ZM10 53.1431C7.25 53.1431 5 50.8656 5 48.0819C5 45.2982 7.25 43.0206 10 43.0206C12.75 43.0206 15 45.2982 15 48.0819C15 50.8656 12.75 53.1431 10 53.1431ZM23.75 50.6125H31.25V45.5513H23.75V50.6125ZM97.0781 63.6927C96.625 63.234 96.125 62.8228 95.5938 62.459C94 61.3677 92.0781 60.735 90 60.735C87.9219 60.735 86 61.3677 84.4062 62.459C83.8906 62.8069 83.4219 63.2024 82.9844 63.6452L68.6406 54.9304C69.5156 52.8268 70 50.5018 70 48.0819C70 38.2915 62.1719 30.3675 52.5 30.3675C50.7344 30.3675 49.0781 30.7155 47.4688 31.19L41.3281 17.8884C43.5625 16.0378 45 13.27 45 10.1225C45 8.01892 44.375 6.0735 43.2969 4.46023C42.5781 3.38471 41.6562 2.45154 40.5938 1.72399C39 0.632656 37.0781 0 35 0C32.9219 0 31 0.632656 29.4062 1.72399C28.3438 2.45154 27.4219 3.38471 26.7031 4.46023C25.625 6.0735 25 8.01892 25 10.1225C25 15.7057 29.4844 20.245 35 20.245C35.625 20.245 36.2344 20.1659 36.8281 20.0552L42.9219 33.2777C38.1562 36.441 35 41.8818 35 48.0819C35 57.8722 42.8281 65.7962 52.5 65.7962C57.9688 65.7962 62.7812 63.2024 66 59.2324L80.4375 67.9947C80.1719 68.9121 80.0156 69.8611 80.0156 70.8575C80.0156 76.4407 84.5 80.98 90.0156 80.98C92.0938 80.98 94.0156 80.3474 95.6094 79.256C96.6719 78.5285 97.5938 77.5953 98.3125 76.5198C99.375 74.9065 100 72.9611 100 70.8575C100 68.7539 99.375 66.8085 98.2969 65.1952C97.9375 64.6575 97.5156 64.1514 97.0781 63.6927ZM35 15.1838C32.25 15.1838 30 12.9062 30 10.1225C30 7.33881 32.25 5.06125 35 5.06125C37.75 5.06125 40 7.33881 40 10.1225C40 12.9062 37.75 15.1838 35 15.1838ZM52.5 60.735C45.6094 60.735 40 55.0569 40 48.0819C40 41.1068 45.6094 35.4288 52.5 35.4288C59.3906 35.4288 65 41.1068 65 48.0819C65 55.0569 59.3906 60.735 52.5 60.735ZM90 75.9188C87.25 75.9188 85 73.6412 85 70.8575C85 68.0738 87.25 65.7962 90 65.7962C92.75 65.7962 95 68.0738 95 70.8575C95 73.6412 92.75 75.9188 90 75.9188Z" fill="#3FA5D5"/>
</svg>
